<svg version="1.1" id="Layer_1" xmlns="http://www.w3.org/2000/svg" xmlns:xlink="http://www.w3.org/1999/xlink" x="0px" y="0px"
	 width="100%" viewBox="0 0 496 496" enable-background="new 0 0 496 496" xml:space="preserve">
<path fill="#000000" opacity="1.000000" stroke="none" 
	d="
M96.905167,37.294979 
	C106.536179,65.548080 114.608665,93.811775 119.716522,122.857780 
	C122.969063,141.353485 125.196815,159.949142 126.500893,178.714676 
	C127.973381,199.903580 127.557404,221.008698 125.198692,242.020599 
	C121.212334,277.532013 112.059502,311.643341 94.453873,343.019958 
	C90.711159,349.690216 88.412155,356.663971 86.561157,363.902985 
	C83.467117,376.003418 79.686256,387.883118 75.566978,399.666321 
	C74.867912,401.666016 73.727066,403.601929 74.046776,406.926208 
	C82.814445,403.653687 92.314087,403.910553 100.005661,397.757874 
	C121.765785,380.351196 145.275772,366.022919 172.176559,357.913391 
	C208.998734,346.812958 244.625122,350.036926 279.542053,366.040802 
	C309.958038,379.981689 340.549133,393.630646 373.131165,402.007050 
	C389.886322,406.314545 406.869720,407.694702 424.103729,406.030151 
	C427.724243,405.680450 431.376526,405.213501 435.089172,406.048096 
	C435.246796,408.663330 433.027100,408.817657 431.586395,409.631653 
	C412.358368,420.495361 391.504272,426.495636 369.907349,430.357391 
	C336.780731,436.280762 303.675049,435.362579 270.511322,430.626740 
	C243.203278,426.727081 215.892242,422.784332 188.500198,419.560059 
	C171.004517,417.500702 153.358765,416.716888 135.780975,415.352356 
	C134.987579,415.290741 134.200989,415.141510 133.402206,414.448029 
	C187.027649,402.831329 241.154556,398.859650 295.973633,402.850769 
	C286.691681,401.353333 277.451050,399.491608 268.119293,398.432831 
	C247.429291,396.085388 226.645386,394.834717 205.817688,395.420258 
	C168.643555,396.465332 131.677719,399.133759 96.385567,412.354340 
	C87.035431,415.856934 77.834885,419.757233 68.531387,423.387146 
	C66.037605,424.360138 65.190865,426.456207 64.276024,428.612579 
	C56.785072,446.269226 48.098251,463.329498 38.607803,479.986847 
	C37.647377,481.672546 36.957279,483.595215 34.281490,485.326538 
	C31.318539,477.774536 28.470303,470.617706 25.722637,463.422516 
	C25.190565,462.029144 26.098547,460.939941 27.027853,459.881256 
	C43.894627,440.666656 54.819683,418.081451 63.673176,394.412445 
	C76.200806,360.921051 83.411751,326.197113 87.906189,290.760254 
	C92.740257,252.645447 93.163780,214.414856 92.578522,176.121338 
	C92.451843,167.832977 91.540764,159.556610 90.508018,151.255325 
	C85.050240,218.586487 81.695923,286.143890 65.685562,352.243286 
	C62.926163,351.591187 62.896984,349.660095 62.306171,348.244690 
	C52.434925,324.595428 46.553612,299.941376 43.570641,274.523804 
	C40.689999,249.978134 39.975384,225.374786 41.868279,200.758347 
	C43.997505,173.068481 48.410305,145.699173 54.751972,118.645782 
	C62.475109,85.699089 72.500000,53.492683 85.494659,22.230528 
	C86.068710,20.849491 86.699821,19.489805 87.365829,18.150751 
	C87.574814,17.730583 87.985405,17.410688 88.752312,16.529373 
	C92.491852,23.151981 94.182701,30.226696 96.905167,37.294979 
z"/>
<path fill="#000000" opacity="1.000000" stroke="none" 
	d="
M301.901062,164.879868 
	C321.380035,149.727997 339.962494,133.987061 360.093994,120.272659 
	C370.020782,113.510162 380.430908,107.532875 391.110931,102.067871 
	C399.753448,97.645485 412.453644,101.513306 418.533112,110.030113 
	C425.437195,119.702133 424.806610,130.288849 416.804169,138.085297 
	C394.309082,160.001282 369.228882,178.791519 344.437653,197.934280 
	C334.553223,205.566589 324.517395,212.995270 315.538605,221.766083 
	C308.558014,228.584976 306.847168,236.987717 312.071533,245.182953 
	C327.756439,269.786957 344.350250,293.747101 363.038239,316.207550 
	C381.976501,338.968781 402.951813,359.583923 426.516388,377.571869 
	C431.565460,381.426086 437.093658,385.114594 436.488434,393.135254 
	C436.137085,397.791382 434.257416,400.187561 430.075928,401.333832 
	C417.768585,404.707581 406.543579,402.690338 395.936279,395.420624 
	C368.959656,376.932190 345.367218,354.719604 323.365143,330.672791 
	C311.426544,317.624634 300.145660,304.065491 289.899628,289.642181 
	C283.991516,281.325378 276.562531,274.320862 269.836609,266.708618 
	C267.368591,263.915375 265.429138,264.958588 262.960632,266.448395 
	C238.129852,281.434448 213.873840,297.283722 190.432541,314.372406 
	C185.451263,318.003723 180.388870,321.543243 174.750580,324.115723 
	C160.801605,330.479858 151.456757,324.196930 149.462311,308.928650 
	C147.016190,290.202545 156.618698,278.322174 169.865311,267.905731 
	C183.878555,256.886414 197.922256,245.903122 212.091797,235.086349 
	C219.167679,229.684769 225.316101,223.446381 231.020386,216.652435 
	C233.419662,213.794830 233.936462,211.036560 233.238113,207.477753 
	C230.967636,195.907440 225.619720,185.512909 221.221741,174.743576 
	C217.169479,164.820755 213.586258,154.882614 217.736252,143.869675 
	C220.097427,137.603790 222.593857,135.928864 228.983215,137.930389 
	C234.008499,139.504562 238.352737,141.903488 241.766190,146.160538 
	C248.643936,154.738052 255.824081,163.072983 262.872131,171.514099 
	C270.040009,180.098694 279.357941,181.512375 288.534271,175.134903 
	C293.043762,172.000824 297.268585,168.457199 301.901062,164.879868 
z"/>
<path fill="#000000" opacity="1.000000" stroke="none" 
	d="
M186.342926,238.638184 
	C185.728653,243.646210 181.818848,243.790756 178.491913,243.943100 
	C175.017212,244.102203 171.786682,242.481705 170.495377,239.029327 
	C168.884262,234.721985 168.632156,230.179169 171.390793,226.144516 
	C173.607178,222.902893 177.043793,222.202133 180.708389,222.859497 
	C184.686295,223.573044 186.547287,226.391281 187.180832,230.133911 
	C187.601990,232.621811 186.882980,234.415207 183.964828,234.560455 
	C180.705963,234.722672 177.448273,234.908783 174.127930,235.087830 
	C175.649765,239.688324 177.982712,240.878311 181.855743,239.081650 
	C183.287048,238.417664 184.434464,236.712967 186.342926,238.638184 
M177.842880,226.489975 
	C176.266327,227.043732 174.765244,227.664871 174.891891,230.092896 
	C177.440521,230.866531 179.938843,231.425598 182.591949,229.594131 
	C181.893707,227.418335 180.505524,226.563034 177.842880,226.489975 
z"/>
<path fill="#000000" opacity="1.000000" stroke="none" 
	d="
M133.174026,233.099564 
	C135.445221,231.522858 137.770569,231.194290 139.993881,230.555573 
	C141.354248,230.164780 142.616104,229.347031 142.118149,227.757553 
	C141.626007,226.186600 140.066528,226.298264 138.728195,226.533661 
	C138.093521,226.645309 137.498016,227.003113 136.896591,227.275482 
	C135.401245,227.952667 133.603516,230.159485 132.532822,227.201660 
	C131.674957,224.831757 134.124741,224.263596 135.711349,223.587708 
	C142.288208,220.785950 146.926559,223.726425 147.165817,230.850494 
	C147.297119,234.760300 146.656845,238.786179 149.798111,242.126892 
	C149.652176,242.599182 149.506241,243.071472 149.360291,243.543762 
	C144.677948,243.543762 139.894028,244.142563 135.342651,243.370529 
	C131.038025,242.640335 130.285080,238.398941 133.174026,233.099564 
M140.434799,239.636444 
	C141.894684,238.437698 142.929764,237.076172 142.155838,234.777008 
	C139.363220,234.204666 136.301865,233.991272 135.678925,237.516327 
	C135.278152,239.784271 137.535187,240.630707 140.434799,239.636444 
z"/>
<path fill="#000000" opacity="1.000000" stroke="none" 
	d="
M150.977737,239.488129 
	C152.032455,237.351791 153.304138,237.564987 154.751541,238.574936 
	C156.170212,239.564850 157.774628,239.878189 159.489609,239.695953 
	C160.560852,239.582123 161.482422,239.136185 161.795120,238.098923 
	C162.221924,236.683258 161.244537,235.914505 160.100906,235.491959 
	C158.706436,234.976776 157.228317,234.691055 155.823730,234.199417 
	C153.062073,233.232773 151.303864,231.398895 151.370575,228.322189 
	C151.432526,225.466354 153.027206,223.584930 155.735916,222.993073 
	C158.862106,222.309967 162.048752,222.162704 164.589432,224.705978 
	C165.216522,225.333710 165.248291,226.264236 164.721207,227.001190 
	C164.054565,227.933228 163.099442,228.019516 162.060226,227.605225 
	C159.977707,226.774994 157.818741,225.231308 155.972046,228.174255 
	C156.794708,230.653168 159.063126,231.038666 161.047455,231.577118 
	C164.566559,232.531982 166.585159,234.493958 166.257080,238.302902 
	C165.939880,241.985428 163.307388,243.366028 160.168289,243.787537 
	C156.404373,244.292908 152.875671,243.777985 150.977737,239.488129 
z"/>
<path fill="#000000" opacity="1.000000" stroke="none" 
	d="
M191.439484,238.245728 
	C191.507736,235.545395 191.580109,233.222321 191.574905,230.899414 
	C191.556900,222.855255 192.552658,221.935272 200.349518,222.854553 
	C201.584763,223.000198 202.727417,223.421326 202.948181,224.743896 
	C203.180557,226.135956 202.296936,226.997711 200.941391,227.005020 
	C195.718216,227.033218 195.238983,230.529205 195.317215,234.499527 
	C195.346634,235.992676 195.415253,237.496292 195.281311,238.978439 
	C195.131927,240.631821 195.911789,243.273056 193.080414,243.028473 
	C190.399689,242.796890 191.412659,240.330276 191.439484,238.245728 
z"/>
</svg>